<svg xmlns="http://www.w3.org/2000/svg" width="32" height="32" viewBox="0 0 32 32"><defs><style>.cls-1,.cls-3,.cls-5{fill:#fff;}.cls-1,.cls-2{stroke:#383838;}.cls-1,.cls-2,.cls-3,.cls-5,.cls-6{stroke-miterlimit:5;}.cls-2,.cls-6{fill:none;}.cls-3{stroke:#a0a09f;}.cls-4{fill:#a0a09f;}.cls-5{stroke:#e42d2c;}.cls-6{stroke:#ee3d3b;}</style></defs><g id="LineBreakModern32"><g id="icon"><polygon class="cls-1" points="26.5 30.5 5.5 30.5 5.5 2.5 19.5 2.5 26.5 9.5 26.5 30.5"/><polyline class="cls-2" points="26.5 9.5 19.5 9.5 19.5 2.5"/><path class="cls-3" d="M9,12.5H23M9,9.5h7m-7,15H23m-14,3H23"/><path class="cls-4" d="M9,15v7h6V15Zm5,6H10V16h4Z"/><line class="cls-5" x1="21" y1="16.5" x2="23" y2="16.5"/><line class="cls-5" x1="17" y1="19.5" x2="23" y2="19.5"/><line class="cls-5" x1="17" y1="21.5" x2="23" y2="21.5"/><g id="icon-2" data-name="icon"><g id="icon-3" data-name="icon"><path class="cls-6" d="M17,18l2-1.5L17,15"/></g></g></g></g></svg>