<svg xmlns="http://www.w3.org/2000/svg" width="32" height="32" viewBox="0 0 32 32"><defs><style>.cls-1{fill:#fff;}.cls-1,.cls-2{stroke:#383838;stroke-miterlimit:5;}.cls-2{fill:none;}.cls-3{fill:#228bcb;}</style></defs><g id="PageSizeModern32"><g id="icon"><polygon class="cls-1" points="29.5 31.5 8.5 31.5 8.5 5.5 21.5 5.5 29.5 13.5 29.5 31.5"/><polyline class="cls-2" points="29.5 13.5 21.5 13.5 21.5 5.5"/><polygon class="cls-3" points="5 6 5 5 4 5 3 5 2 5 2 6 3 6 3 31 2 31 2 32 3 32 4 32 5 32 5 31 4 31 4 6 5 6"/><polygon class="cls-3" points="29 0 29 1 9 1 9 0 8 0 8 1 8 2 8 3 9 3 9 2 29 2 29 3 30 3 30 2 30 1 30 0 29 0"/></g></g></svg>