<svg xmlns="http://www.w3.org/2000/svg" width="32" height="32" viewBox="0 0 32 32"><defs><style>.cls-1{fill:#fff;}.cls-2{fill:#383838;}.cls-3{fill:#a0a09f;opacity:0.6;}.cls-3,.cls-4{isolation:isolate;}.cls-4{fill:#ee3d3b;opacity:0.5;}</style></defs><g id="WatermarkModern32"><g id="icon"><polygon class="cls-1" points="27.5 30.5 4.5 30.5 4.5 1.5 19.5 1.5 27.5 9.5 27.5 30.5"/><path class="cls-2" d="M19.71,1H4V31H28V9.29ZM20,2.71,26.29,9H20ZM5,30V2H19v8h8V30Z"/><path class="cls-3" d="M25,27H7V26H25Zm0-3H7V23H25Zm0-3H7V20H25Zm0-3H7V17H25Zm0-3H7V14H25Zm-8-3H7V11H17Zm0-3H7V8H17Zm0-3H7V5H17Z"/><path class="cls-4" d="M22.25,26.56l-2.18-5.35H12L9.82,26.5,8.53,26l7-17.07h1.06l7,17.13Zm-9.69-6.75H19.5L16,11.31Z"/></g></g></svg>