<svg id="Layer_1" data-name="Layer 1" xmlns="http://www.w3.org/2000/svg" width="32" height="32" viewBox="0 0 32 32"><defs><style>.cls-1{fill:#92cbee;stroke:#0964b0;stroke-linecap:round;stroke-miterlimit:5;}.cls-2,.cls-3{fill:#f7da8e;}.cls-2{stroke:#e57428;stroke-miterlimit:1;}</style></defs><path class="cls-1" d="M18.42,18.23a6,6,0,0,1,2.87-.74,6.39,6.39,0,0,1,6.21,6.56,6.39,6.39,0,0,1-6.21,6.55H5.45A5.1,5.1,0,0,1,.5,25.37a5.18,5.18,0,0,1,3.67-5,7.61,7.61,0,0,1,7.4-6.83,7.49,7.49,0,0,1,6.85,4.73A8.24,8.24,0,0,1,19,21.39"/><g id="icon"><path class="cls-2" d="M22.94,9.06l3.89-3.89M31,15.5H25.6M4,15.5H2M6.17,5.17l3.89,3.89M16.5,1V6.39"/></g><path class="cls-3" d="M11,11.49a6.71,6.71,0,0,1,5.57-3,6.8,6.8,0,0,1,6.75,6.86c0,.05,0,.11,0,.17a6.67,6.67,0,0,0-1.49-.17A6.57,6.57,0,0,0,19,16a6.77,6.77,0,0,0-6.41-4.71A6.25,6.25,0,0,0,11,11.49Z"/></svg>