<?xml version="1.0" encoding="UTF-8"?>
<!DOCTYPE svg PUBLIC "-//W3C//DTD SVG 1.1//EN" "http://www.w3.org/Graphics/SVG/1.1/DTD/svg11.dtd">
<svg version="1.1" id="Layer_1" xmlns="http://www.w3.org/2000/svg" xmlns:xlink="http://www.w3.org/1999/xlink" x="0px" y="0px" width="32px" height="32px" viewBox="0 0 32 32" enable-background="new 0 0 32 32" xml:space="preserve">
  <g id="icon">
    <path d="M24.242,30.5c-1.339,-0.148,-2.557,-0.542,-3.724,-1.11c-1.927,-0.939,-3.655,-2.186,-5.278,-3.585c-2.291,-1.973,-4.374,-4.158,-6.317,-6.484c-1.742,-2.085,-3.347,-4.27,-4.624,-6.685c-0.846,-1.6,-1.526,-3.272,-1.747,-5.093c-0.066,-0.544,-0.087,-1.134,0.052,-1.653c0.116,-0.434,0.457,-0.831,0.766,-1.183c0.986,-1.121,2.148,-2.037,3.382,-2.856c0.614,-0.408,1.295,-0.468,1.964,-0.146c0.235,0.113,0.473,0.313,0.608,0.537c1.142,1.9,2.253,3.82,3.391,5.723c0.435,0.726,0.296,1.421,-0.067,2.088c-0.444,0.816,-0.928,1.611,-1.431,2.39c-0.18,0.278,-0.164,0.471,0.026,0.708c1.119,1.389,2.187,2.825,3.365,4.161c1.009,1.145,2.131,2.187,3.222,3.254c0.765,0.749,0.78,0.737,1.728,0.262c0.576,-0.289,1.141,-0.602,1.723,-0.879c0.581,-0.276,1.185,-0.46,1.829,-0.224c0.138,0.051,0.274,0.123,0.393,0.211c1.713,1.255,3.403,2.543,5.14,3.762c1.085,0.762,1.066,1.965,0.369,2.857c-0.972,1.243,-2.017,2.425,-3.304,3.351C25.253,30.232,24.777,30.511,24.242,30.5z" fill="#FFFFFF" stroke="#383838" stroke-width="1" stroke-miterlimit="5"/>
  </g>
</svg>
