<svg id="Layer_1" data-name="Layer 1" xmlns="http://www.w3.org/2000/svg" width="30" height="30" viewBox="0 0 30 30"><defs><style>.cls-1{fill:#f7da8e;stroke:#e57428;}.cls-1,.cls-2{stroke-linecap:round;stroke-miterlimit:5;}.cls-2{fill:none;stroke:#636363;stroke-width:1.2px;}.cls-3{fill:#ef3e3b;}</style></defs><g id="icon"><path class="cls-1" d="M16,1.5A14.5,14.5,0,1,1,1.5,16,14.5,14.5,0,0,1,16,1.5Z" transform="translate(-1 -1)"/><path class="cls-2" d="M22.69,20.79l-.39.37a9.12,9.12,0,0,1-6.16,2.34H16a9.59,9.59,0,0,1-6.71-2.73" transform="translate(-1 -1)"/><path class="cls-3" d="M11.31,13.82a.17.17,0,0,1-.23,0C9.19,12,8.34,11.42,8.34,10.2a1.53,1.53,0,0,1,2.77-.93.1.1,0,0,0,.17,0,1.53,1.53,0,0,1,2.78.93C14.06,11.3,11.85,13.34,11.31,13.82ZM23.6,10.2a1.53,1.53,0,0,0-2.78-.93.11.11,0,0,1-.18,0,1.52,1.52,0,0,0-2.76.92c0,1.23.85,1.81,2.74,3.61a.16.16,0,0,0,.23,0C21.39,13.34,23.6,11.3,23.6,10.2Z" transform="translate(-1 -1)"/></g></svg>