<svg id="Layer_1" data-name="Layer 1" xmlns="http://www.w3.org/2000/svg" width="32" height="32" viewBox="0 0 32 32"><defs><style>.cls-1{fill:#f7da8e;stroke:#e57428;}.cls-1,.cls-2{stroke-linecap:round;stroke-miterlimit:5;}.cls-2{fill:none;stroke:#636363;stroke-width:1.2px;}.cls-2,.cls-3{isolation:isolate;}.cls-3{fill:#636363;}</style></defs><g id="icon"><path class="cls-1" d="M16,1.5A14.5,14.5,0,1,1,1.5,16,14.5,14.5,0,0,1,16,1.5Z"/><path class="cls-2" d="M24.9,16.32a8.9,8.9,0,0,1-2.6,6A8.64,8.64,0,0,1,16.14,25H16a8.89,8.89,0,0,1-8.91-8.63"/><path class="cls-3" d="M20.17,12.78A1.86,1.86,0,1,1,22,10.93,1.85,1.85,0,0,1,20.17,12.78Zm-8.55,0a1.86,1.86,0,1,1,1.86-1.85A1.85,1.85,0,0,1,11.62,12.78Z"/></g></svg>