<svg id="Layer_1" data-name="Layer 1" xmlns="http://www.w3.org/2000/svg" width="16" height="16" viewBox="0 0 16 16">
  <defs>
    <style>
      .cls-1, .cls-2 {
        fill: #fff;
      }

      .cls-2 {
        fill-rule: evenodd;
      }

      .cls-3 {
        fill: #4c7db1;
      }

      .cls-4 {
        fill: #464646;
      }

      .cls-5 {
        fill: #231f20;
      }

      .cls-6 {
        fill: #d8bb44;
      }

      .cls-7 {
        fill: #998241;
      }

      .cls-8 {
        fill: #be1e2d;
      }
    </style>
  </defs>
  <title>accept all changes</title>
  <polygon class="cls-1" points="11.02 1 11.02 5 15 5 11.02 1"/>
  <polygon class="cls-2" points="10 6 10 3 10 1 5 1 5 3 4 3 4 6 0 6 0 7 0 9 2 11 3 12 4 12 4 13 4 15 10 15 15 15 15 6 10 6"/>
  <polygon class="cls-3" points="0 7 1.6 7 3.2 8.42 6.4 3 8 3 3.2 10 0 7"/>
  <path class="cls-4" d="M11,0H4V3H5V1h5V6h5v9H5V12H4v4H16V5Zm0,5V1l4,4Z"/>
  <g>
    <polygon class="cls-5" points="7 14 7 12 9 14 7 14"/>
    <rect class="cls-6" x="8.38" y="9.09" width="4.24" height="2.83" transform="translate(-4.35 10.5) rotate(-45)"/>
    <rect class="cls-7" x="8.88" y="10.29" width="4.24" height="1.41" transform="translate(-4.56 11) rotate(-45)"/>
    <rect class="cls-8" x="12.79" y="6.09" width="1.41" height="2.83" transform="translate(-1.35 11.74) rotate(-45)"/>
  </g>
</svg>
