<svg id="Layer_1" data-name="Layer 1" xmlns="http://www.w3.org/2000/svg" width="16" height="16" viewBox="0 0 16 16">
  <defs>
    <style>
      .cls-1 {
        fill: #fff;
      }

      .cls-2 {
        fill: #464646;
      }

      .cls-3 {
        fill: #4a7db1;
      }

      .cls-4 {
        fill: #ecc77e;
      }
    </style>
  </defs>
  <title>add new source</title>
  <rect class="cls-1" x="2" y="3" width="13" height="11"/>
  <g>
    <rect class="cls-2" x="8" y="3" width="1" height="5"/>
    <rect class="cls-2" x="1" y="2" width="7" height="1"/>
    <rect class="cls-2" x="9" y="2" width="7" height="1"/>
  </g>
  <polygon class="cls-3" points="15 3 15 14 2 14 2 3 1 3 1 15 16 15 16 3 15 3"/>
  <g>
    <rect x="3" y="5" width="4" height="1"/>
    <rect x="10" y="5" width="4" height="1"/>
    <rect x="3" y="7" width="4" height="1"/>
    <rect x="10" y="7" width="4" height="1"/>
    <rect x="3" y="9" width="4" height="1"/>
    <rect x="3" y="11" width="4" height="1"/>
    <rect x="10" y="9" width="4" height="1"/>
    <rect x="10" y="11" width="4" height="1"/>
  </g>
  <g>
    <rect class="cls-1" x="1" y="2" width="4" height="3"/>
    <g>
      <rect class="cls-4" x="0.01" y="4" width="1" height="1"/>
      <rect class="cls-4" x="4.01" y="4" width="1" height="1"/>
      <rect class="cls-4" x="4.01" width="1" height="1"/>
      <rect class="cls-4" x="0.01" width="1" height="1"/>
      <path class="cls-4" d="M3,1V0H2V1H1V2H0V3H1V4H2V5H3V4H4V3H5V2H4V1ZM3,3H2V2H3Z"/>
    </g>
  </g>
</svg>
