<svg id="Layer_1" data-name="Layer 1" xmlns="http://www.w3.org/2000/svg" width="32" height="32" viewBox="0 0 32 32">
  <defs>
    <style>
      .cls-1 {
        fill: #e6e6e6;
      }

      .cls-2 {
        fill: #464646;
        opacity: 0.5;
      }

      .cls-3 {
        fill: #a0a09f;
        fill-rule: evenodd;
      }
    </style>
  </defs>
  <title>delete</title>
  <g>
    <polygon class="cls-1" points="12 7 8 7 7 8 5 8 1 12 1 15 2 15 2 29 23 29 23 20 31 20 31 7 12 7"/>
    <path class="cls-2" d="M11,7V8H31V20H23v9H2V15H1V30H24l8-9V7ZM24,29V21h7Z"/>
    <path class="cls-3" d="M12,3.24c-.19-.23-2.68.81-5.62,2.91A28.3,28.3,0,0,0,1.52,2a1.2,1.2,0,0,0-1.14,2c.26.2,2.25,1.61,4.32,3.35A27.73,27.73,0,0,0,.09,12.17c-.5,1.69,1.16,2,1.7,1.41C2,13.31,4,10.87,6.17,8.71,9,11.34,11.54,14.15,11.75,14s-1.39-3.31-4.23-6.58C9.9,5.2,12.1,3.44,12,3.24Z"/>
    <polygon class="cls-1" points="24 29 24 21 31 21 24 29"/>
  </g>
</svg>
