<svg id="Layer_1" data-name="Layer 1" xmlns="http://www.w3.org/2000/svg" width="32" height="32" viewBox="0 0 32 32">
  <defs>
    <style>
      .cls-1 {
        fill: #464646;
      }

      .cls-2 {
        fill: #fff;
      }

      .cls-3 {
        fill: #eac47b;
      }

      .cls-4 {
        fill: #4c7db1;
      }
    </style>
  </defs>
  <title>editing restrictions</title>
  <polygon class="cls-1" points="25 8 25 31 3 31 3 1 18 1 18 0 3 0 2 0 2 32 3 32 26 32 26 31.06 26 8 25 8"/>
  <polygon class="cls-2" points="17 8 17 1 3 1 3 31 17 31 25 31 25 8 17 8"/>
  <polygon class="cls-2" points="18 0 18 8 26 8 18 0"/>
  <rect class="cls-1" x="17" y="1" width="1" height="8"/>
  <rect class="cls-1" x="18" y="8" width="7" height="1"/>
  <polygon class="cls-1" points="25 8 26 8 18 0 18 1 25 8"/>
  <path class="cls-3" d="M28,19s0-7-5-7-5,7-5,7H16V29H30V19Zm-4,4.72V27H22V23.72c-1-.34-1-1-1-1.72a2,2,0,0,1,4,0C25,22.74,25,23.38,24,23.72ZM20,19s0-5,3-5,3,5,3,5Z"/>
  <rect class="cls-1" x="5" y="8" width="10" height="1"/>
  <rect class="cls-1" x="5" y="5" width="10" height="1"/>
  <rect class="cls-1" x="5" y="18" width="4" height="1"/>
  <rect class="cls-1" x="5" y="21" width="3" height="1"/>
  <rect class="cls-1" x="5" y="12" width="13" height="1"/>
  <rect class="cls-1" x="5" y="15" width="11" height="1"/>
  <rect class="cls-1" x="5" y="24" width="3" height="1"/>
  <rect class="cls-1" x="5" y="27" width="1" height="1"/>
  <g>
    <circle class="cls-4" cx="13.5" cy="20.5" r="3.5"/>
    <path class="cls-4" d="M17,25a3.19,3.19,0,0,0-3,3H13a3.19,3.19,0,0,0-3-3,3.28,3.28,0,0,0-3,3.5A3.28,3.28,0,0,0,10,32h7a3.28,3.28,0,0,0,3-3.5A3.28,3.28,0,0,0,17,25Z"/>
  </g>
</svg>
