<svg id="Layer_1" data-name="Layer 1" xmlns="http://www.w3.org/2000/svg" width="32" height="32" viewBox="0 0 32 32">
  <defs>
    <style>
      .cls-1 {
        fill: #fff;
      }

      .cls-2 {
        fill: #464646;
      }

      .cls-3 {
        fill: #4a7fb3;
      }

      .cls-4 {
        fill: #b7b7b7;
      }

      .cls-5 {
        fill: #92bbe0;
      }

      .cls-6 {
        fill: #231f20;
      }
    </style>
  </defs>
  <title>prevew results</title>
  <g>
    <g>
      <polygon class="cls-1" points="20 0 20 8 28 8 20 0"/>
      <polygon class="cls-1" points="19 0 5 0 5 31 19 31 27 31 27 9 19 9 19 0"/>
    </g>
    <polygon class="cls-2" points="27 8 27 31 5 31 5 1 20 1 20 0 5 0 4 0 4 32 5 32 28 32 28 31 28 8 27 8"/>
    <path class="cls-3" d="M1,10V20H24V10Zm22,9H2V11H23Z"/>
    <rect class="cls-2" x="19" y="1" width="1" height="8"/>
    <rect class="cls-2" x="20" y="8" width="7" height="1"/>
    <polygon class="cls-2" points="27 8 28 8 20 0 20 1 27 8"/>
    <rect class="cls-4" x="7" y="22" width="18" height="1"/>
    <rect class="cls-4" x="7" y="25" width="18" height="1"/>
    <rect class="cls-5" x="2" y="11" width="21" height="8"/>
    <g>
      <g>
        <g>
          <rect class="cls-6" x="7" y="13" width="2" height="1"/>
          <polygon class="cls-6" points="9 14 9 16 8 16 8 15 7 15 7 17 10 17 10 14 9 14"/>
        </g>
        <g>
          <polygon class="cls-6" points="12 14 13 14 13 13 12 13 12 12 11 12 11 17 13 17 13 16 12 16 12 14"/>
          <rect class="cls-6" x="13" y="14" width="1" height="2"/>
        </g>
        <g>
          <rect class="cls-6" x="16" y="13" width="2" height="1"/>
          <rect class="cls-6" x="15" y="14" width="1" height="2"/>
          <rect class="cls-6" x="16" y="16" width="2" height="1"/>
        </g>
      </g>
      <g>
        <g>
          <rect class="cls-6" x="7" y="13" width="2" height="1"/>
          <polygon class="cls-6" points="9 14 9 16 8 16 8 15 7 15 7 17 10 17 10 14 9 14"/>
        </g>
        <g>
          <polygon class="cls-6" points="12 14 13 14 13 13 12 13 12 12 11 12 11 17 13 17 13 16 12 16 12 14"/>
          <rect class="cls-6" x="13" y="14" width="1" height="2"/>
        </g>
        <g>
          <rect class="cls-6" x="16" y="13" width="2" height="1"/>
          <rect class="cls-6" x="15" y="14" width="1" height="2"/>
          <rect class="cls-6" x="16" y="16" width="2" height="1"/>
        </g>
      </g>
      <g>
        <g>
          <rect class="cls-6" x="7" y="13" width="2" height="1"/>
          <polygon class="cls-6" points="9 14 9 16 8 16 8 15 7 15 7 17 10 17 10 14 9 14"/>
        </g>
        <g>
          <polygon class="cls-6" points="12 14 13 14 13 13 12 13 12 12 11 12 11 17 13 17 13 16 12 16 12 14"/>
          <rect class="cls-6" x="13" y="14" width="1" height="2"/>
        </g>
        <g>
          <rect class="cls-6" x="16" y="13" width="2" height="1"/>
          <rect class="cls-6" x="15" y="14" width="1" height="2"/>
          <rect class="cls-6" x="16" y="16" width="2" height="1"/>
        </g>
      </g>
      <g>
        <g>
          <rect class="cls-6" x="7" y="13" width="2" height="1"/>
          <polygon class="cls-6" points="9 14 9 16 8 16 8 15 7 15 7 17 10 17 10 14 9 14"/>
        </g>
        <g>
          <polygon class="cls-6" points="12 14 13 14 13 13 12 13 12 12 11 12 11 17 13 17 13 16 12 16 12 14"/>
          <rect class="cls-6" x="13" y="14" width="1" height="2"/>
        </g>
        <g>
          <rect class="cls-6" x="16" y="13" width="2" height="1"/>
          <rect class="cls-6" x="15" y="14" width="1" height="2"/>
          <rect class="cls-6" x="16" y="16" width="2" height="1"/>
        </g>
      </g>
      <g>
        <g>
          <rect class="cls-6" x="7" y="13" width="2" height="1"/>
          <polygon class="cls-6" points="9 14 9 16 8 16 8 15 7 15 7 17 10 17 10 14 9 14"/>
        </g>
        <g>
          <polygon class="cls-6" points="12 14 13 14 13 13 12 13 12 12 11 12 11 17 13 17 13 16 12 16 12 14"/>
          <rect class="cls-6" x="13" y="14" width="1" height="2"/>
        </g>
        <g>
          <rect class="cls-6" x="16" y="13" width="2" height="1"/>
          <rect class="cls-6" x="15" y="14" width="1" height="2"/>
          <rect class="cls-6" x="16" y="16" width="2" height="1"/>
        </g>
      </g>
      <g>
        <g>
          <rect class="cls-6" x="7" y="13" width="2" height="1"/>
          <polygon class="cls-6" points="9 14 9 16 8 16 8 15 7 15 7 17 10 17 10 14 9 14"/>
        </g>
        <g>
          <polygon class="cls-6" points="12 14 13 14 13 13 12 13 12 12 11 12 11 17 13 17 13 16 12 16 12 14"/>
          <rect class="cls-6" x="13" y="14" width="1" height="2"/>
        </g>
        <g>
          <rect class="cls-6" x="16" y="13" width="2" height="1"/>
          <rect class="cls-6" x="15" y="14" width="1" height="2"/>
          <rect class="cls-6" x="16" y="16" width="2" height="1"/>
        </g>
      </g>
      <g>
        <g>
          <rect class="cls-6" x="7" y="13" width="2" height="1"/>
          <polygon class="cls-6" points="9 14 9 16 8 16 8 15 7 15 7 17 10 17 10 14 9 14"/>
        </g>
        <g>
          <polygon class="cls-6" points="12 14 13 14 13 13 12 13 12 12 11 12 11 17 13 17 13 16 12 16 12 14"/>
          <rect class="cls-6" x="13" y="14" width="1" height="2"/>
        </g>
        <g>
          <rect class="cls-6" x="16" y="13" width="2" height="1"/>
          <rect class="cls-6" x="15" y="14" width="1" height="2"/>
          <rect class="cls-6" x="16" y="16" width="2" height="1"/>
        </g>
      </g>
      <g>
        <g>
          <rect class="cls-6" x="7" y="13" width="2" height="1"/>
          <polygon class="cls-6" points="9 14 9 16 8 16 8 15 7 15 7 17 10 17 10 14 9 14"/>
        </g>
        <g>
          <polygon class="cls-6" points="12 14 13 14 13 13 12 13 12 12 11 12 11 17 13 17 13 16 12 16 12 14"/>
          <rect class="cls-6" x="13" y="14" width="1" height="2"/>
        </g>
        <g>
          <rect class="cls-6" x="16" y="13" width="2" height="1"/>
          <rect class="cls-6" x="15" y="14" width="1" height="2"/>
          <rect class="cls-6" x="16" y="16" width="2" height="1"/>
        </g>
      </g>
      <g>
        <g>
          <rect class="cls-6" x="7" y="13" width="2" height="1"/>
          <polygon class="cls-6" points="9 14 9 16 8 16 8 15 7 15 7 17 10 17 10 14 9 14"/>
        </g>
        <g>
          <polygon class="cls-6" points="12 14 13 14 13 13 12 13 12 12 11 12 11 17 13 17 13 16 12 16 12 14"/>
          <rect class="cls-6" x="13" y="14" width="1" height="2"/>
        </g>
        <g>
          <rect class="cls-6" x="16" y="13" width="2" height="1"/>
          <rect class="cls-6" x="15" y="14" width="1" height="2"/>
          <rect class="cls-6" x="16" y="16" width="2" height="1"/>
        </g>
      </g>
    </g>
  </g>
</svg>
