<svg id="Layer_1" data-name="Layer 1" xmlns="http://www.w3.org/2000/svg" width="16" height="16" viewBox="0 0 16 16">
  <defs>
    <style>
      .cls-1 {
        fill: #464646;
      }

      .cls-2 {
        fill: #fff;
      }

      .cls-3 {
        fill: #a0a09f;
      }
    </style>
  </defs>
  <title>print</title>
  <path class="cls-1" d="M3,1V7H13V1Zm9,5H4V2h8Z"/>
  <rect class="cls-2" x="4" y="2" width="8" height="4"/>
  <polygon class="cls-1" points="15 5 15 4 14 4 14 8 2 8 2 4 1 4 1 5 0 5 0 12 1 12 1 13 3 13 3 10 13 10 13 13 15 13 15 12 16 12 16 5 15 5"/>
  <path class="cls-1" d="M3,10v5H13V10Zm9,4H4V11h8Z"/>
  <rect class="cls-2" x="4" y="11" width="8" height="3"/>
  <rect class="cls-2" x="6" y="11" width="4" height="3"/>
  <rect class="cls-3" x="5" y="12" width="6" height="1"/>
</svg>
