<svg id="Layer_1" data-name="Layer 1" xmlns="http://www.w3.org/2000/svg" width="32" height="32" viewBox="0 0 32 32">
  <defs>
    <style>
      .cls-1 {
        fill: #464646;
      }

      .cls-2 {
        fill: #fff;
      }

      .cls-3, .cls-4 {
        fill: #d76443;
      }

      .cls-4 {
        fill-rule: evenodd;
      }

      .cls-5 {
        fill: #4c7db1;
      }
    </style>
  </defs>
  <title>reject</title>
  <g>
    <polygon class="cls-1" points="26 8 26 31 4 31 4 1 19 1 19 0 4 0 3 0 3 32 4 32 27 32 27 31.06 27 8 26 8"/>
    <polygon class="cls-2" points="18 8 18 1 11 1 10 1 6 1 6 0 3 0 3 12 4 12 4 31 18 31 26 31 26 8 18 8"/>
    <polygon class="cls-2" points="19 0 19 8 27 8 19 0"/>
    <rect class="cls-1" x="18" y="1" width="1" height="8"/>
    <rect class="cls-1" x="19" y="8" width="7" height="1"/>
    <polygon class="cls-1" points="26 8 27 8 19 0 19 1 26 8"/>
    <rect class="cls-3" x="6" y="27" width="5" height="1"/>
    <path class="cls-4" d="M12,1.24c-.19-.23-2.68.81-5.62,2.91A28.3,28.3,0,0,0,1.52,0a1.2,1.2,0,0,0-1.14,2c.26.2,2.25,1.61,4.32,3.35A27.73,27.73,0,0,0,.09,10.17c-.5,1.69,1.16,2,1.7,1.41C2,11.31,4,8.87,6.17,6.71,9,9.34,11.54,12.15,11.75,12S10.36,8.68,7.53,5.41C9.9,3.2,12.1,1.44,12,1.24Z"/>
    <g>
      <polygon class="cls-5" points="14 28 14 25.02 16.98 28 14 28"/>
      <rect class="cls-5" x="28.26" y="10.15" width="2.4" height="4.8" transform="translate(-0.24 24.5) rotate(-45)"/>
      <rect class="cls-5" x="14.34" y="17.13" width="16.21" height="4.86" transform="translate(-7.26 21.6) rotate(-45)"/>
    </g>
  </g>
</svg>
