<svg id="Layer_1" data-name="Layer 1" xmlns="http://www.w3.org/2000/svg" width="16" height="16" viewBox="0 0 16 16">
  <defs>
    <style>
      .cls-1 {
        fill: #fff;
      }

      .cls-2 {
        fill: #464646;
      }

      .cls-3 {
        fill: #d76443;
        fill-rule: evenodd;
      }
    </style>
  </defs>
  <title>reject all changes</title>
  <polygon class="cls-1" points="9 1 9 5 13 5 9 1"/>
  <rect class="cls-2" x="2" y="15" width="12" height="1"/>
  <path class="cls-2" d="M9,0H2V16H3V1H8V6h5V16h1V5ZM9,5V1l4,4Z"/>
  <polygon class="cls-1" points="8 6 8 3 8 1 3 1 3 15 8 15 13 15 13 6 8 6"/>
  <path class="cls-3" d="M11,7.62A6.91,6.91,0,0,0,8.19,9.08,14,14,0,0,0,5.76,7a.6.6,0,0,0-.57,1c.13.1,1.12.81,2.16,1.68a13.59,13.59,0,0,0-2.3,2.36c-.25.85.57,1,.85.71C6,12.66,7,11.44,8.08,10.36c1.44,1.31,2.69,2.71,2.79,2.64A9.14,9.14,0,0,0,8.76,9.7,23.83,23.83,0,0,0,11,7.62Z"/>
</svg>
