<svg id="Layer_1" data-name="Layer 1" xmlns="http://www.w3.org/2000/svg" width="16" height="16" viewBox="0 0 16 16">
  <defs>
    <style>
      .cls-1 {
        fill: #fff;
      }

      .cls-2 {
        fill: #464646;
      }

      .cls-3 {
        fill: #4c7db1;
      }
    </style>
  </defs>
  <title>save as</title>
  <rect class="cls-1" x="2" y="2" width="12" height="12"/>
  <g>
    <path class="cls-2" d="M14,1H1V15H13V14H11V10H5v4H2V2H4V7h8V2h2V13h1V1ZM6,11H8v2H6Z"/>
    <rect class="cls-2" x="13" y="13" width="1" height="1"/>
  </g>
  <g>
    <polygon class="cls-1" points="6 13 12.96 6 16.01 8.98 8.79 16 6 16 6 13"/>
    <g>
      <polygon class="cls-3" points="6.79 15.01 6.79 13.01 8.79 15.01 6.79 15.01"/>
      <rect class="cls-3" x="8.17" y="10.09" width="4.24" height="2.83" transform="translate(-5.12 10.64) rotate(-45)"/>
      <rect class="cls-3" x="12.58" y="7.09" width="1.41" height="2.83" transform="translate(-2.12 11.89) rotate(-45)"/>
    </g>
  </g>
</svg>
