<svg id="Layer_1" data-name="Layer 1" xmlns="http://www.w3.org/2000/svg" width="32" height="32" viewBox="0 0 32 32">
  <defs>
    <style>
      .cls-1 {
        fill: #fff;
      }

      .cls-2 {
        fill: #464646;
      }

      .cls-3 {
        fill: #d76443;
      }

      .cls-4 {
        fill: #ec1c24;
        opacity: 0.2;
      }

      .cls-5 {
        fill: #231f20;
      }
    </style>
  </defs>
  <title>show hide comments</title>
  <g>
    <polygon class="cls-1" points="16 0 16 8 24 8 16 0"/>
    <polygon class="cls-1" points="15 0 1 0 1 31 15 31 23 31 23 8 15 8 15 0"/>
  </g>
  <polygon class="cls-2" points="23 8 23 31 1 31 1 1 16 1 16 0 1 0 0 0 0 32 1 32 24 32 24 31.06 24 8 23 8"/>
  <rect class="cls-2" x="15" y="1" width="1" height="8"/>
  <rect class="cls-2" x="16" y="8" width="7" height="1"/>
  <polygon class="cls-2" points="23 8 24 8 16 0 16 1 23 8"/>
  <rect class="cls-2" x="3" y="8" width="10" height="1"/>
  <rect class="cls-2" x="3" y="5" width="10" height="1"/>
  <rect class="cls-2" x="3" y="18" width="18" height="1"/>
  <rect class="cls-2" x="3" y="21" width="18" height="1"/>
  <rect class="cls-2" x="3" y="12" width="18" height="1"/>
  <rect class="cls-2" x="3" y="15" width="18" height="1"/>
  <rect class="cls-2" x="3" y="24" width="18" height="1"/>
  <rect class="cls-2" x="3" y="27" width="18" height="1"/>
  <g>
    <rect class="cls-1" x="22" y="19" width="9" height="5"/>
    <g>
      <rect class="cls-3" x="7" y="21" width="1" height="1"/>
      <rect class="cls-3" x="9" y="21" width="1" height="1"/>
      <rect class="cls-3" x="11" y="21" width="1" height="1"/>
      <rect class="cls-3" x="13" y="21" width="1" height="1"/>
      <rect class="cls-3" x="15" y="21" width="5" height="1"/>
    </g>
    <rect class="cls-4" x="22" y="19" width="9" height="5"/>
    <path class="cls-3" d="M21,18v7H32V18Zm10,6H22V19h9Z"/>
    <g>
      <rect class="cls-5" x="24" y="21" width="1" height="1"/>
      <rect class="cls-5" x="23" y="20" width="1" height="1"/>
      <rect class="cls-5" x="23" y="22" width="1" height="1"/>
      <rect class="cls-5" x="25" y="22" width="1" height="1"/>
      <rect class="cls-5" x="25" y="20" width="1" height="1"/>
      <rect class="cls-5" x="26" y="21" width="1" height="1"/>
      <rect class="cls-5" x="27" y="20" width="1" height="1"/>
      <rect class="cls-5" x="28" y="21" width="1" height="1"/>
      <rect class="cls-5" x="29" y="20" width="1" height="1"/>
      <rect class="cls-5" x="29" y="22" width="1" height="1"/>
      <rect class="cls-5" x="27" y="22" width="1" height="1"/>
    </g>
  </g>
</svg>
