<svg id="Layer_1" data-name="Layer 1" xmlns="http://www.w3.org/2000/svg" width="32" height="32" viewBox="0 0 32 32">
  <defs>
    <style>
      .cls-1 {
        fill: #464646;
      }

      .cls-2 {
        fill: #4c7db1;
      }
    </style>
  </defs>
  <title>spell check</title>
  <g>
    <path class="cls-1" d="M11.33,14.79H6.23v-.15a2.52,2.52,0,0,0,1-.19.73.73,0,0,0,.48-.67,1.64,1.64,0,0,0-.21-.69l-.13-.27-.75-1.48H3.17l-.4.87-.2.39a2.63,2.63,0,0,0-.34,1.08.8.8,0,0,0,.12.43.93.93,0,0,0,.35.33,1.85,1.85,0,0,0,.77.2v.15H0v-.15a1.74,1.74,0,0,0,.72-.16A2,2,0,0,0,1.33,14a3.76,3.76,0,0,0,.48-.66c.16-.27.37-.67.63-1.21L5.27,6.22h.44l3.37,6.6a10.88,10.88,0,0,0,.61,1.06,1.63,1.63,0,0,0,.49.49,1.68,1.68,0,0,0,.43.17,4.92,4.92,0,0,0,.72.1ZM6.46,11.08,4.83,7.83,3.29,11.08Z"/>
    <path class="cls-1" d="M11.54,14.79v-.15a3.29,3.29,0,0,0,.73-.1,1.4,1.4,0,0,0,.48-.26,1,1,0,0,0,.34-.51,4.26,4.26,0,0,0,.08-.95V8.19a4.26,4.26,0,0,0-.08-.95,1,1,0,0,0-.34-.51,1.37,1.37,0,0,0-.49-.27,3.77,3.77,0,0,0-.72-.1V6.22h6.11a4,4,0,0,1,1.47.34,2.12,2.12,0,0,1,.78.66,1.63,1.63,0,0,1,.27.92,1.69,1.69,0,0,1-.63,1.35,2.2,2.2,0,0,1-.51.32,7.09,7.09,0,0,1-.83.28,9,9,0,0,1,1.16.22,3,3,0,0,1,.74.34,2.29,2.29,0,0,1,.77.81,2,2,0,0,1,.28,1,2.11,2.11,0,0,1-.28,1.05,2.22,2.22,0,0,1-.79.76,3.41,3.41,0,0,1-1.09.36,13.16,13.16,0,0,1-1.78.1Zm3.33-8.38v3.73h.63a7.13,7.13,0,0,0,.91-.05,3.77,3.77,0,0,0,.66-.12,1.78,1.78,0,0,0,.47-.19,1.6,1.6,0,0,0,.6-.61,1.55,1.55,0,0,0,.22-.82,2.07,2.07,0,0,0-.22-.91,1.76,1.76,0,0,0-.59-.67,1.9,1.9,0,0,0-.72-.28,7.47,7.47,0,0,0-1.24-.08Zm0,3.93v2.58a3,3,0,0,0,.08.76,1.07,1.07,0,0,0,.27.49,1.79,1.79,0,0,0,1.35.42,3.19,3.19,0,0,0,2-.55,1.8,1.8,0,0,0,.72-1.51,2.29,2.29,0,0,0-.22-1,1.73,1.73,0,0,0-.61-.72,4,4,0,0,0-2.18-.46Z"/>
    <path class="cls-1" d="M31.76,6.18,31.85,9h-.18c-.05-.12-.1-.21-.13-.28-.18-.4-.33-.7-.44-.89a3.19,3.19,0,0,0-.88-1,3,3,0,0,0-.89-.48,3.83,3.83,0,0,0-2.57.16,3.46,3.46,0,0,0-1.06.77,4.36,4.36,0,0,0-.79,1.15,4.63,4.63,0,0,0-.45,2.07,5,5,0,0,0,.31,1.78,3.3,3.3,0,0,0,.88,1.32,4,4,0,0,0,2.84,1,4.92,4.92,0,0,0,1.59-.24,2.54,2.54,0,0,0,1.09-.7,3.19,3.19,0,0,0,.65-1.41l.18,0a2.94,2.94,0,0,1-.67,1.57A3.05,3.05,0,0,1,30,14.7a6.27,6.27,0,0,1-2,.3,8.05,8.05,0,0,1-2.05-.26,4.45,4.45,0,0,1-2.43-1.49,4,4,0,0,1-.88-2.59,4.51,4.51,0,0,1,.51-2.12A4.1,4.1,0,0,1,24.53,7a5.61,5.61,0,0,1,1.68-.72,7.42,7.42,0,0,1,2-.27,7.53,7.53,0,0,1,2,.29l.64.17a1,1,0,0,0,.32.06.42.42,0,0,0,.32-.14,1,1,0,0,0,.13-.2Z"/>
  </g>
  <polygon class="cls-2" points="11 18 14.6 18 18.2 24.21 25.4 14 29 14 18.2 28 11 18"/>
</svg>
