<svg id="Layer_1" data-name="Layer 1" xmlns="http://www.w3.org/2000/svg" width="16" height="16" viewBox="0 0 16 16">
  <defs>
    <style>
      .cls-1, .cls-3 {
        fill: #4a7fb3;
      }

      .cls-2 {
        fill: #e78d44;
      }

      .cls-3 {
        opacity: 0.7;
      }

      .cls-4 {
        fill: #ecc77e;
      }

      .cls-5 {
        fill: #4a7db1;
      }

      .cls-6 {
        fill: #fff;
      }
    </style>
  </defs>
  <title>style</title>
  <g>
    <rect class="cls-1" y="4" width="4" height="9"/>
    <rect class="cls-2" x="5" y="4" width="4" height="9"/>
    <polygon class="cls-3" points="0 3 1 3 4 0 3 0 0 3"/>
    <polygon class="cls-3" points="4 3 5 3 8 0 7 0 4 3"/>
    <polygon class="cls-4" points="6 3 7 3 10 0 9 0 6 3"/>
    <polygon class="cls-4" points="9 3 10 3 13 0 12 0 9 3"/>
    <polygon class="cls-2" points="10 6 10 3 13 0 13 6 10 6"/>
    <g>
      <rect class="cls-5" x="14" y="8" width="1" height="1"/>
      <path class="cls-5" d="M15,9v1H13V8h1V7H8v9h8V9Zm0,6H9V8h3v3h3Z"/>
      <rect class="cls-5" x="10" y="12" width="4" height="1"/>
      <rect class="cls-5" x="10" y="10" width="1" height="1"/>
    </g>
    <rect class="cls-6" x="2" y="6" width="2" height="1"/>
    <rect class="cls-6" x="2" y="10" width="2" height="1"/>
    <rect class="cls-6" x="7" y="6" width="2" height="1"/>
    <rect class="cls-6" x="7" y="10" width="1" height="1"/>
  </g>
</svg>
