<svg id="Layer_1" data-name="Layer 1" xmlns="http://www.w3.org/2000/svg" width="32" height="32" viewBox="0 0 32 32">
  <defs>
    <style>
      .cls-1 {
        fill: #464646;
      }

      .cls-2 {
        fill: #fff;
      }

      .cls-3 {
        fill: #231f20;
      }

      .cls-4 {
        fill: #be1e2d;
      }

      .cls-5 {
        fill: #998241;
      }

      .cls-6 {
        fill: #d76443;
      }
    </style>
  </defs>
  <title>track changes</title>
  <polygon class="cls-1" points="24 8 24 31 2 31 2 1 17 1 17 0 2 0 1 0 1 32 2 32 25 32 25 31.06 25 8 24 8"/>
  <polygon class="cls-2" points="16 8 16 1 2 1 2 31 16 31 24 31 24 8 16 8"/>
  <polygon class="cls-2" points="17 0 17 8 25 8 17 0"/>
  <rect class="cls-1" x="16" y="1" width="1" height="8"/>
  <rect class="cls-1" x="17" y="8" width="7" height="1"/>
  <polygon class="cls-1" points="24 8 25 8 17 0 17 1 24 8"/>
  <rect class="cls-1" x="4" y="27" width="4" height="1"/>
  <g>
    <rect class="cls-1" x="4" y="18" width="18" height="1"/>
    <rect class="cls-1" x="4" y="18" width="18" height="1"/>
    <rect class="cls-1" x="4" y="18" width="18" height="1"/>
    <rect class="cls-1" x="4" y="18" width="18" height="1"/>
    <rect class="cls-1" x="4" y="18" width="18" height="1"/>
    <rect class="cls-1" x="4" y="18" width="18" height="1"/>
    <rect class="cls-1" x="4" y="18" width="18" height="1"/>
    <rect class="cls-1" x="4" y="18" width="18" height="1"/>
    <rect class="cls-1" x="4" y="18" width="18" height="1"/>
    <rect class="cls-1" x="4" y="18" width="18" height="1"/>
  </g>
  <g>
    <rect class="cls-1" x="4" y="21" width="11" height="1"/>
    <rect class="cls-1" x="4" y="21" width="11" height="1"/>
    <rect class="cls-1" x="4" y="21" width="11" height="1"/>
    <rect class="cls-1" x="4" y="21" width="11" height="1"/>
    <rect class="cls-1" x="4" y="21" width="11" height="1"/>
    <rect class="cls-1" x="4" y="21" width="11" height="1"/>
    <rect class="cls-1" x="4" y="21" width="11" height="1"/>
    <rect class="cls-1" x="4" y="21" width="11" height="1"/>
    <rect class="cls-1" x="4" y="21" width="11" height="1"/>
    <rect class="cls-1" x="4" y="21" width="11" height="1"/>
  </g>
  <g>
    <rect class="cls-1" x="4" y="12" width="18" height="1"/>
    <rect class="cls-1" x="4" y="12" width="18" height="1"/>
    <rect class="cls-1" x="4" y="12" width="18" height="1"/>
    <rect class="cls-1" x="4" y="12" width="18" height="1"/>
    <rect class="cls-1" x="4" y="12" width="18" height="1"/>
    <rect class="cls-1" x="4" y="12" width="18" height="1"/>
    <rect class="cls-1" x="4" y="12" width="18" height="1"/>
    <rect class="cls-1" x="4" y="12" width="18" height="1"/>
    <rect class="cls-1" x="4" y="12" width="18" height="1"/>
    <rect class="cls-1" x="4" y="12" width="18" height="1"/>
  </g>
  <g>
    <rect class="cls-1" x="4" y="15" width="18" height="1"/>
    <rect class="cls-1" x="4" y="15" width="18" height="1"/>
    <rect class="cls-1" x="4" y="15" width="18" height="1"/>
    <rect class="cls-1" x="4" y="15" width="18" height="1"/>
    <rect class="cls-1" x="4" y="15" width="18" height="1"/>
    <rect class="cls-1" x="4" y="15" width="18" height="1"/>
    <rect class="cls-1" x="4" y="15" width="18" height="1"/>
    <rect class="cls-1" x="4" y="15" width="18" height="1"/>
    <rect class="cls-1" x="4" y="15" width="18" height="1"/>
    <rect class="cls-1" x="4" y="15" width="18" height="1"/>
  </g>
  <g>
    <rect class="cls-1" x="4" y="24" width="8" height="1"/>
    <rect class="cls-1" x="4" y="24" width="8" height="1"/>
    <rect class="cls-1" x="4" y="24" width="8" height="1"/>
    <rect class="cls-1" x="4" y="24" width="8" height="1"/>
    <rect class="cls-1" x="4" y="24" width="8" height="1"/>
    <rect class="cls-1" x="4" y="24" width="8" height="1"/>
    <rect class="cls-1" x="4" y="24" width="8" height="1"/>
    <rect class="cls-1" x="4" y="24" width="8" height="1"/>
    <rect class="cls-1" x="4" y="24" width="8" height="1"/>
    <rect class="cls-1" x="4" y="24" width="8" height="1"/>
  </g>
  <g>
    <polygon class="cls-3" points="13 28 13 25.02 15.98 28 13 28"/>
    <rect class="cls-4" x="27.26" y="10.15" width="2.4" height="4.8" transform="translate(-0.54 23.8) rotate(-45)"/>
    <rect class="cls-5" x="13.34" y="17.13" width="16.21" height="4.86" transform="translate(-7.55 20.89) rotate(-45)"/>
  </g>
  <rect class="cls-6" x="4" y="18" width="11" height="1"/>
  <rect class="cls-6" x="4" y="15" width="5" height="1"/>
  <rect class="cls-6" x="11" y="12" width="5" height="1"/>
  <rect class="cls-1" x="4" y="5" width="7" height="1"/>
  <rect class="cls-6" x="4" y="8" width="7" height="1"/>
</svg>
