<svg id="Layer_1" data-name="Layer 1" xmlns="http://www.w3.org/2000/svg" width="32" height="32" viewBox="0 0 32 32">
  <defs>
    <style>
      .cls-1, .cls-4 {
        fill: #fff;
      }

      .cls-2 {
        fill: #464646;
      }

      .cls-3 {
        fill: #c6d0e3;
      }

      .cls-4, .cls-5 {
        stroke: #4c7db1;
        stroke-miterlimit: 10;
      }

      .cls-5 {
        fill: none;
      }
    </style>
  </defs>
  <title>web layout</title>
  <g>
    <rect class="cls-1" x="1" y="2" width="26" height="20"/>
    <path class="cls-2" d="M27,1H0V23H28V1Zm0,21H1V2H27Z"/>
    <path class="cls-3" d="M26,8H2V4H26Zm-9,2H2v9H17Zm9,0H19v9h7Z"/>
    <path class="cls-1" d="M32,21A10,10,0,1,1,22,11,10,10,0,0,1,32,21Z"/>
    <g>
      <path class="cls-4" d="M31,22a9,9,0,1,1-9-9A9,9,0,0,1,31,22Z"/>
      <line class="cls-5" x1="13.17" y1="21.75" x2="30.37" y2="21.75"/>
      <path class="cls-5" d="M15.14,28c1.72-3.42,12-3.42,13.72,0"/>
      <path class="cls-5" d="M28.86,16c-1.72,3.43-12,3.43-13.72,0"/>
      <path class="cls-5" d="M21.52,31C17,28.74,17,15.24,21.57,13"/>
      <path class="cls-5" d="M21.59,31c4.56-2.28,4.55-15.77,0-18"/>
    </g>
  </g>
</svg>
