<svg id="AcceptChangeModern32" xmlns="http://www.w3.org/2000/svg" width="32" height="32" viewBox="0 0 32 32"><defs><style>.cls-1,.cls-3{fill:#fff;}.cls-2{fill:#d66343;}.cls-3{stroke:#228bcb;}.cls-3,.cls-5{stroke-miterlimit:5;}.cls-4{fill:#383838;}.cls-5{fill:none;stroke:#17ab4f;}</style></defs><path class="cls-1" d="M18.24,27.35l-6.63,2.56a.69.69,0,0,1-.9-.9l2.54-6.67L24,12l1.5-1.5V10L18,3H4v7H5l6.5-6.5L15,7,5,18,4,17V31H25V21Z"/><rect class="cls-2" x="6.02" y="28" width="4.29" height="1"/><path class="cls-3" d="M14.63,23.67,28,10.43a1.47,1.47,0,0,1,2.07,0l.55.54a1.47,1.47,0,0,1,0,2.07L17.25,26.27,13,27.9Zm10.8-10.73L28,15.52"/><polygon class="cls-4" points="5 3 18 2.98 17 2 4 2 4 10 5 10 5 3"/><polygon class="cls-4" points="25 30 5 30 5 18 4 17 4 31 26 31 26 20 25 21 25 30"/><path class="cls-4" d="M24.44,10,17,3V2h.5L26,10Z"/><path class="cls-4" d="M18,3v7H17V3Z"/><path class="cls-4" d="M26,10H17V9h7.94Z"/><polyline class="cls-5" points="1 10 5 14 12.51 6"/></svg>