<svg xmlns="http://www.w3.org/2000/svg" width="32" height="32" viewBox="0 0 32 32"><defs><style>.cls-1{fill:#fff;}.cls-1,.cls-2{stroke:#383838;}.cls-1,.cls-2,.cls-4{stroke-miterlimit:5;}.cls-2,.cls-4{fill:none;}.cls-3{fill:#91caee;}.cls-4{stroke:#0c65af;stroke-linecap:round;}</style></defs><g id="InsertMergeFieldModern32"><g id="icon"><polygon class="cls-1" points="26.5 30.5 5.5 30.5 5.5 2.5 19.5 2.5 26.5 9.5 26.5 30.5"/><polyline class="cls-2" points="26.5 9.5 19.5 9.5 19.5 2.5"/><rect class="cls-3" x="8.5" y="12.5" width="6" height="3"/><rect class="cls-4" x="8.5" y="12.5" width="6" height="3"/><rect class="cls-3" x="17.5" y="12.5" width="6" height="3"/><rect class="cls-4" x="17.5" y="12.5" width="6" height="3"/><rect class="cls-3" x="8.5" y="18.5" width="6" height="3"/><rect class="cls-4" x="8.5" y="18.5" width="6" height="3"/><rect class="cls-3" x="17.5" y="18.5" width="6" height="3"/><rect class="cls-4" x="17.5" y="18.5" width="6" height="3"/><rect class="cls-3" x="8.5" y="24.5" width="6" height="3"/><rect class="cls-4" x="8.5" y="24.5" width="6" height="3"/><rect class="cls-3" x="17.5" y="24.5" width="6" height="3"/><rect class="cls-4" x="17.5" y="24.5" width="6" height="3"/></g></g></svg>