<svg xmlns="http://www.w3.org/2000/svg" width="32" height="32" viewBox="0 0 32 32"><defs><style>.cls-1,.cls-3{fill:#fff;}.cls-2,.cls-4,.cls-5{fill:none;}.cls-2{stroke:#383838;}.cls-2,.cls-3,.cls-4,.cls-5{stroke-miterlimit:5;}.cls-3,.cls-4{stroke:#0964b0;}.cls-5{stroke:#17ab4f;}</style></defs><g id="MailMergeModern32"><polygon class="cls-1" points="11 16 11 29.5 1.5 29.5 1.5 1.5 15.5 1.5 22.5 8.5 22.5 16 11 16"/><polyline class="cls-2" points="22.5 8.5 15.5 8.5 15.5 1.5"/><polyline class="cls-2" points="22.5 16 22.5 8.5 15.5 1.5 1.5 1.5 1.5 29.5 11 29.5"/><g id="icon"><path class="cls-3" d="M30.5,17.5h-18v13h18Z"/><polyline class="cls-4" points="12.5 17.86 21.5 24.36 30.5 17.86"/></g><path class="cls-5" d="M13.2,11.2H8.42A1.92,1.92,0,0,0,6.5,13.12V18.2m3-10.7,3.73,3.7L9.47,14.9"/></g></svg>