<svg xmlns="http://www.w3.org/2000/svg" width="32" height="32" viewBox="0 0 32 32"><defs><style>.cls-1{fill:#fff;}.cls-2{fill:none;stroke:#383838;}.cls-2,.cls-3{stroke-miterlimit:5;}.cls-3{fill:#92cbee;stroke:#0964b0;}.cls-4{fill:#383838;}</style></defs><g id="ShowAllFieldsResultsModern32"><polygon class="cls-1" points="29.5 21.5 29.5 11 29.5 9.5 22.5 2.5 8.5 2.5 8.5 10 27 10 27 23 8.5 23 8.5 30.5 29.5 30.5 29.5 21.5"/><g id="icon"><polyline class="cls-2" points="29.5 9.5 22.5 9.5 22.5 2.5"/><polyline class="cls-2" points="8.5 10 8.5 2.5 22.5 2.5 29.5 9.63 29.5 30.5 8.5 30.5 8.5 23"/></g><rect class="cls-3" x="2.5" y="11.5" width="23" height="10"/><rect class="cls-4" x="8" y="15" width="2" height="1"/><polygon class="cls-4" points="10 16 10 18 9 18 9 17 8 17 8 19 11 19 11 16 10 16"/><polygon class="cls-4" points="13 16 14 16 14 15 13 15 13 14 12 14 12 19 14 19 14 18 13 18 13 16"/><rect class="cls-4" x="14" y="16" width="1" height="2"/><rect class="cls-4" x="16" y="16" width="1" height="2"/><rect class="cls-4" x="17" y="15" width="2" height="1"/><rect class="cls-4" x="17" y="18" width="2" height="1"/></g></svg>