<svg xmlns="http://www.w3.org/2000/svg" width="32" height="32" viewBox="0 0 32 32"><defs><style>.cls-1{fill:#fff;}.cls-2{fill:none;stroke:#383838;}.cls-2,.cls-3{stroke-miterlimit:5;}.cls-3{fill:#92cbee;stroke:#0964b0;}.cls-4{fill:#383838;}</style></defs><g id="ShowAllFieldsCodesModern32"><polygon class="cls-1" points="29.5 21.5 29.5 11 29.5 9.5 22.5 2.5 8.5 2.5 8.5 10 27 10 27 23 8.5 23 8.5 30.5 29.5 30.5 29.5 21.5"/><g id="icon"><polyline class="cls-2" points="29.5 9.5 22.5 9.5 22.5 2.5"/><polyline class="cls-2" points="8.5 10 8.5 2.5 22.5 2.5 29.5 9.63 29.5 30.5 8.5 30.5 8.5 23"/></g><rect class="cls-3" x="2.5" y="11.5" width="23" height="10"/><path class="cls-4" d="M9,13a4.33,4.33,0,0,0-1.89,3.51A4.4,4.4,0,0,0,9,20H8a4.33,4.33,0,0,1-2-3.49A4.4,4.4,0,0,1,8,13Z"/><path class="cls-4" d="M19,13a4.33,4.33,0,0,1,1.89,3.51A4.4,4.4,0,0,1,19,20h1a4.33,4.33,0,0,0,2-3.49A4.4,4.4,0,0,0,20,13Z"/><rect class="cls-4" x="10" y="14" width="8" height="1"/><rect class="cls-4" x="10" y="16" width="8" height="1"/><rect class="cls-4" x="10" y="18" width="5" height="1"/></g></svg>