<svg xmlns="http://www.w3.org/2000/svg" width="32" height="32" viewBox="0 0 32 32"><defs><style>.cls-1,.cls-3{fill:#fff;}.cls-2{fill:#c8c6c4;}.cls-2,.cls-3,.cls-8{stroke:#383838;}.cls-2,.cls-5{stroke-linecap:round;}.cls-2,.cls-3,.cls-4,.cls-5,.cls-6,.cls-7,.cls-8{stroke-miterlimit:5;}.cls-4,.cls-6,.cls-7,.cls-8{fill:none;}.cls-4,.cls-7{stroke:#a0a09f;}.cls-4{opacity:0.6;isolation:isolate;}.cls-5{fill:#92cbee;stroke:#0964b0;}.cls-6{stroke:#228bcb;}.cls-7{opacity:0.6;}</style></defs><g id="InsertDateTimeModern32"><path class="cls-1" d="M17,24.5A7.5,7.5,0,0,1,30.5,20V8.5H.5v22H20A7.49,7.49,0,0,1,17,24.5Z"/><rect class="cls-2" x="0.5" y="3.5" width="30" height="5"/><path class="cls-3" d="M7.5,1V6m18-5V6"/><path class="cls-4" d="M9.5,27.5h-6v-4h6Zm6-4h-6v4h6Zm-6-4h-6v4h6Zm6,0h-6v4h6Zm-6-4h-6v4h6Zm6,0h-6v4h6Zm0-4h-6v4h6Zm6,0h-6v4h6Zm6,0h-6v4h6Z"/><path class="cls-5" d="M15.5,19.5h-6v-4h6Z"/><g id="icon"><path class="cls-3" d="M19.5,25.25a5.5,5.5,0,1,1,5.5,5.5A5.5,5.5,0,0,1,19.5,25.25Z"/><path class="cls-6" d="M24.5,20.85v4.66H28"/></g><line class="cls-7" x1="16" y1="19.5" x2="19" y2="19.5"/><line class="cls-7" x1="21.5" y1="16" x2="21.5" y2="18"/><polyline class="cls-8" points="20 30.5 0.5 30.5 0.5 8.5 30.5 8.5 30.5 20"/></g></svg>