<svg xmlns="http://www.w3.org/2000/svg" width="32" height="32" viewBox="0 0 32 32"><defs><style>.cls-1{fill:none;stroke:#228bcb;stroke-miterlimit:1;}.cls-2{fill:#fff;}.cls-3{fill:#383838;}</style></defs><g id="inserthyperlinkModern32"><g id="icon"><path class="cls-1" d="M8.5,28V25.85a3.36,3.36,0,0,1,3.35-3.35h4.3a3.36,3.36,0,0,1,3.35,3.35v1.3a3.36,3.36,0,0,1-3.35,3.35H14m-7-8H4.85A3.36,3.36,0,0,0,1.5,25.85v1.3A3.36,3.36,0,0,0,4.85,30.5h4.3a3.36,3.36,0,0,0,3.35-3.35V25"/><path class="cls-2" d="M16.55,1.5A14,14,0,0,0,3.75,21.08,5.14,5.14,0,0,1,4.63,21H16.37A4.63,4.63,0,0,1,21,25.63v1.74a4.55,4.55,0,0,1-.25,1.48A14,14,0,0,0,16.55,1.5Z"/><path class="cls-3" d="M16.55,1A14.49,14.49,0,0,0,3.27,21.2a4.75,4.75,0,0,1,1-.19c-.15-.33-.29-.67-.41-1h5c.1.33.2.67.32,1h1.06c-.12-.33-.24-.67-.34-1H16v1h.37c.21,0,.42,0,.63,0V20h6.06a19.88,19.88,0,0,1-1.47,3.52q-.33.61-.69,1.17a4.23,4.23,0,0,1,.1.94v.69A18.18,18.18,0,0,0,22.47,24a20.41,20.41,0,0,0,1.63-4h5.13a13.56,13.56,0,0,1-8.32,8.27,4.69,4.69,0,0,1-.4,1.18A14.51,14.51,0,0,0,16.55,1Zm-8,18h-5a13.55,13.55,0,0,1,0-7H8.64a14.79,14.79,0,0,0-.47,3.57A15.67,15.67,0,0,0,8.59,19ZM3.87,11A13.52,13.52,0,0,1,14.59,2.14a16,16,0,0,0-4,4.93A20.61,20.61,0,0,0,8.92,11ZM16,19H9.62a14.64,14.64,0,0,1-.45-3.43A14.09,14.09,0,0,1,9.67,12H16Zm0-8H10c1.18-3.61,3.52-7.08,6-8.62Zm1-8.65c2.51,1.53,4.84,5,6,8.65H17ZM23.33,19H17V12h6.29a14.53,14.53,0,0,1,.49,3.57A14.64,14.64,0,0,1,23.33,19Zm.73-8a18.35,18.35,0,0,0-5.63-8.87A13.5,13.5,0,0,1,29.23,11Zm.3,8a15.67,15.67,0,0,0,.42-3.43A15.38,15.38,0,0,0,24.33,12h5.21a13.55,13.55,0,0,1,0,7Z"/></g></g></svg>